<svg xmlns="http://www.w3.org/2000/svg" xmlns:xlink="http://www.w3.org/1999/xlink" width="40" zoomAndPan="magnify" viewBox="0 0 30 30.000001" height="40" preserveAspectRatio="xMidYMid meet" version="1.0"><defs><clipPath id="16dcec3960"><path d="M 0.484375 0 L 29.515625 0 L 29.515625 29.03125 L 0.484375 29.03125 Z M 0.484375 0 " clip-rule="nonzero"/></clipPath></defs><g clip-path="url(#16dcec3960)"><path fill="#8c429d" d="M 15 0 C 6.992188 0 0.484375 6.507812 0.484375 14.515625 C 0.484375 22.523438 6.992188 29.03125 15 29.03125 C 23.007812 29.03125 29.515625 22.523438 29.515625 14.515625 C 29.515625 6.507812 23.007812 0 15 0 Z M 23.890625 11.660156 L 12.367188 23.382812 C 11.824219 23.953125 10.941406 23.953125 10.394531 23.382812 L 5.179688 18.078125 C 4.339844 17.214844 4.339844 15.832031 5.179688 14.96875 C 5.996094 14.128906 7.332031 14.128906 8.148438 14.96875 L 11.394531 18.257812 L 20.917969 8.550781 C 21.738281 7.710938 23.074219 7.710938 23.890625 8.550781 C 24.730469 9.414062 24.730469 10.820312 23.890625 11.660156 Z M 23.890625 11.660156 " fill-opacity="1" fill-rule="nonzero"/></g></svg>