<svg xmlns="http://www.w3.org/2000/svg" xmlns:xlink="http://www.w3.org/1999/xlink" width="40" zoomAndPan="magnify" viewBox="0 0 30 30.000001" height="40" preserveAspectRatio="xMidYMid meet" version="1.0"><defs><clipPath id="fe25875f49"><path d="M 0.484375 0 L 29.515625 0 L 29.515625 29.03125 L 0.484375 29.03125 Z M 0.484375 0 " clip-rule="nonzero"/></clipPath><clipPath id="6b09f4159e"><path d="M 10.972656 7.839844 L 29.515625 7.839844 L 29.515625 29.03125 L 10.972656 29.03125 Z M 10.972656 7.839844 " clip-rule="nonzero"/></clipPath><clipPath id="e70cecffb6"><path d="M 29.515625 14.515625 C 29.515625 22.53125 23.015625 29.03125 15 29.03125 C 6.984375 29.03125 0.484375 22.53125 0.484375 14.515625 C 0.484375 6.5 6.984375 0 15 0 C 23.015625 0 29.515625 6.5 29.515625 14.515625 Z M 29.515625 14.515625 " clip-rule="nonzero"/></clipPath></defs><g clip-path="url(#fe25875f49)"><path fill="#8c429d" d="M 29.515625 14.515625 C 29.515625 22.53125 23.015625 29.03125 15 29.03125 C 6.984375 29.03125 0.484375 22.53125 0.484375 14.515625 C 0.484375 6.5 6.984375 0 15 0 C 23.015625 0 29.515625 6.5 29.515625 14.515625 " fill-opacity="1" fill-rule="nonzero"/></g><g clip-path="url(#6b09f4159e)"><g clip-path="url(#e70cecffb6)"><path fill="#6f3f7b" d="M 35.976562 19.578125 L 24.257812 7.859375 L 10.980469 21.210938 L 21.609375 31.839844 L 35.976562 19.578125 " fill-opacity="1" fill-rule="nonzero"/></g></g><path fill="#ffffff" d="M 24.257812 7.859375 C 23.871094 7.472656 23.355469 7.257812 22.804688 7.257812 C 22.257812 7.257812 21.742188 7.472656 21.355469 7.859375 L 12.398438 16.816406 L 8.644531 13.066406 C 8.257812 12.675781 7.742188 12.464844 7.195312 12.464844 C 6.644531 12.464844 6.128906 12.675781 5.742188 13.066406 C 4.941406 13.867188 4.941406 15.167969 5.742188 15.96875 L 10.925781 21.152344 C 10.933594 21.160156 10.9375 21.164062 10.945312 21.171875 C 11.042969 21.269531 11.152344 21.359375 11.269531 21.433594 C 11.601562 21.65625 11.996094 21.773438 12.398438 21.773438 C 12.945312 21.773438 13.460938 21.5625 13.851562 21.171875 C 13.867188 21.15625 23.832031 11.1875 24.257812 10.761719 C 24.644531 10.375 24.859375 9.859375 24.859375 9.3125 C 24.859375 8.761719 24.644531 8.246094 24.257812 7.859375 " fill-opacity="1" fill-rule="nonzero"/></svg>